<svg width="23" height="18" viewBox="0 0 23 18" fill="none" xmlns="http://www.w3.org/2000/svg">
<path fill-rule="evenodd" clip-rule="evenodd" d="M1.5 0H22C22.5315 0.542526 22.7328 0.876403 23 1.5V6.5C22.3333 6.5 21 7 21 9C21 11 22.3333 11.5 23 11.5V16.5C22.7765 17.2188 22.5494 17.5413 22 18H1.5C0.951805 17.4624 0.739001 17.1322 0.5 16.5V11.5C1.33333 11.3333 3 10.6 3 9C3 7.4 1 6.66667 0 6.5V1.5C0.467344 0.844025 0.778064 0.505245 1.5 0ZM11.5 2L10 6.5H5.5L9 9.5L7.5 14L11.5 11.5L15.5 14L14 9.5L17.5 6.5H12.7809L11.5 2Z" fill="#141414"/>
</svg>
