<svg width="144" height="47" viewBox="0 0 144 47" fill="none" xmlns="http://www.w3.org/2000/svg">
<g clip-path="url(#clip0_10_59)">
<path d="M37.9503 18.5859V23.5479H35.6296V10.1716H40.741C42.031 10.1033 43.2997 10.5211 44.2973 11.3427C44.7316 11.728 45.0751 12.2051 45.3026 12.7395C45.53 13.2739 45.6359 13.8524 45.6126 14.4328C45.6436 15.0075 45.544 15.5817 45.3209 16.1121C45.098 16.6425 44.7576 17.1153 44.3254 17.4947C43.4657 18.2238 42.2584 18.5859 40.7127 18.5859H37.9503ZM37.9503 16.7046H40.741C41.4179 16.7508 42.088 16.5429 42.6201 16.1214C42.8456 15.9048 43.0208 15.6414 43.1338 15.3497C43.2466 15.0579 43.2941 14.745 43.2731 14.4328C43.2851 14.1196 43.2335 13.8071 43.1211 13.5144C43.009 13.2217 42.8386 12.9549 42.6201 12.7302C42.3768 12.501 42.0903 12.3226 41.7773 12.2055C41.4643 12.0884 41.1312 12.0349 40.7974 12.0482H37.9503V16.7046Z" fill="#229BD8"/>
<path d="M51.3067 23.7312C50.6726 23.7565 50.0402 23.6509 49.4486 23.4212C48.857 23.1913 48.3189 22.8422 47.8677 22.3954C47.422 21.9219 47.0757 21.3636 46.8497 20.7537C46.6238 20.1436 46.5226 19.4943 46.5524 18.8443V18.5668C46.537 17.6487 46.7332 16.7394 47.1255 15.9094C47.4782 15.1575 48.0369 14.5214 48.7369 14.0751C49.4295 13.6417 50.2317 13.4164 51.0482 13.4261C51.6342 13.391 52.2204 13.4891 52.7631 13.7131C53.3058 13.9371 53.7909 14.2812 54.1819 14.7195C54.9194 15.5849 55.2858 16.8031 55.2858 18.3834V19.2865H48.784C48.8141 20.0136 49.1063 20.7052 49.6059 21.2336C49.8442 21.4693 50.1278 21.6545 50.4396 21.7772C50.7513 21.9001 51.0846 21.9584 51.4195 21.9487C51.9089 21.9659 52.3954 21.8637 52.8366 21.6505C53.2777 21.4374 53.6604 21.12 53.9515 20.7257L55.1543 21.878C54.7556 22.4723 54.2058 22.9496 53.5618 23.2608C52.8565 23.5904 52.0845 23.7513 51.3067 23.7312ZM51.0389 15.2133C50.7598 15.204 50.4824 15.2569 50.2263 15.3684C49.9703 15.4798 49.7424 15.647 49.5591 15.8577C49.1463 16.3703 48.8945 16.9939 48.8356 17.6497H53.0638V17.4851C53.0617 16.8694 52.8513 16.2725 52.467 15.7919C52.2835 15.5999 52.061 15.4491 51.8148 15.3493C51.5687 15.2496 51.3042 15.2033 51.0389 15.2133Z" fill="#229BD8"/>
<path d="M56.2253 18.5057C56.1606 17.192 56.536 15.8941 57.2918 14.8183C57.616 14.3679 58.0455 14.0039 58.5425 13.7579C59.0396 13.512 59.5894 13.3916 60.1435 13.4073C60.6236 13.39 61.1016 13.4798 61.5427 13.6701C61.9839 13.8605 62.3774 14.1466 62.6945 14.5079V9.43764H64.9261V23.5477H62.9059L62.7979 22.5177C62.4766 22.9133 62.068 23.2291 61.6041 23.4395C61.1401 23.6501 60.6338 23.75 60.1248 23.7312C59.5758 23.742 59.0327 23.619 58.5416 23.3733C58.0507 23.1275 57.6266 22.7661 57.306 22.3202C56.5325 21.2042 56.1525 19.8621 56.2253 18.5057ZM58.4569 18.6986C58.412 19.5231 58.6149 20.3423 59.0396 21.0502C59.2183 21.3228 59.4647 21.544 59.7546 21.6924C60.0445 21.8409 60.3678 21.9113 60.6931 21.8968C61.1097 21.9151 61.5223 21.8091 61.8788 21.5923C62.2351 21.3754 62.5189 21.0574 62.6945 20.6787V16.4456C62.5197 16.0721 62.238 15.759 61.8848 15.5462C61.5319 15.3335 61.1236 15.2307 60.712 15.251C60.383 15.2356 60.0559 15.307 59.7631 15.458C59.4703 15.6091 59.2225 15.8345 59.0442 16.1117C58.6003 16.898 58.3962 17.7974 58.4569 18.6986Z" fill="#229BD8"/>
<path d="M71.9305 22.5741C71.5832 22.9658 71.1516 23.2734 70.6682 23.4739C70.1848 23.6744 69.6623 23.7623 69.14 23.7312C68.6886 23.7641 68.2358 23.697 67.8134 23.5344C67.3912 23.3717 67.0099 23.1177 66.697 22.7906C66.0941 22.0111 65.7982 21.0369 65.8654 20.0532V13.6096H68.0924V20.0203C68.0924 21.2807 68.6185 21.9016 69.6615 21.9016C70.7044 21.9016 71.4796 21.516 71.8554 20.7352V13.6096H74.087V23.5477H71.9869L71.9305 22.5741Z" fill="#229BD8"/>
<path d="M77.2535 23.5477H75.0265V9.43764H77.2535V23.5477Z" fill="#229BD8"/>
<path d="M78.193 11.0274C78.1889 10.87 78.2157 10.7134 78.2721 10.5665C78.3285 10.4196 78.4134 10.2853 78.5218 10.1714C78.6461 10.0521 78.7938 9.9603 78.9557 9.90196C79.1176 9.84362 79.2899 9.82003 79.4614 9.83274C79.633 9.82119 79.8049 9.84532 79.9666 9.9036C80.1283 9.9619 80.2763 10.0531 80.4011 10.1714C80.5104 10.2847 80.5959 10.4189 80.6523 10.566C80.7089 10.713 80.7351 10.8699 80.7299 11.0274C80.7334 11.1829 80.7058 11.3376 80.6485 11.4822C80.5911 11.6268 80.5054 11.7585 80.3963 11.8693C80.2706 11.9858 80.1225 12.0755 79.9608 12.1329C79.7993 12.1904 79.6278 12.2143 79.4568 12.2032C79.2855 12.2154 79.1139 12.192 78.9522 12.1345C78.7905 12.0771 78.6423 11.9868 78.5173 11.8693C78.4105 11.7572 78.3269 11.6252 78.2713 11.4807C78.2155 11.3362 78.1891 11.1822 78.193 11.0274ZM80.542 23.5477H78.3339V13.6095H80.5607L80.542 23.5477Z" fill="#229BD8"/>
<path d="M84.0427 21.6899H90.1078V23.5477H81.7312V10.1714H84.0521L84.0427 21.6899Z" fill="#229BD8"/>
<path d="M91.0471 11.0274C91.0421 10.8703 91.0681 10.7138 91.1237 10.5669C91.1795 10.42 91.2635 10.2855 91.3713 10.1713C91.6341 9.94918 91.9669 9.8273 92.3109 9.8273C92.6548 9.8273 92.9878 9.94918 93.2506 10.1713C93.3607 10.2843 93.447 10.4183 93.5043 10.5654C93.5615 10.7124 93.5888 10.8696 93.584 11.0274C93.5877 11.1829 93.5598 11.3376 93.5026 11.4822C93.4454 11.6268 93.3596 11.7584 93.2506 11.8692C92.9865 12.0888 92.6542 12.209 92.3109 12.209C91.9677 12.209 91.6354 12.0888 91.3713 11.8692C91.2644 11.7574 91.1807 11.6253 91.1249 11.4808C91.0694 11.3363 91.043 11.1822 91.0471 11.0274ZM93.3961 23.5477H91.1647V13.6095H93.3961V23.5477Z" fill="#229BD8"/>
<path d="M96.6097 13.6095L96.6756 14.7571C97.0231 14.3237 97.467 13.9776 97.9718 13.7465C98.4769 13.5154 99.0287 13.4056 99.5835 13.4261C101.651 13.4261 102.703 14.6098 102.741 16.9771V23.5477H100.509V17.1088C100.552 16.6041 100.406 16.1013 100.1 15.6978C99.9239 15.5292 99.7138 15.4 99.4838 15.3189C99.2537 15.2379 99.0092 15.2067 98.7661 15.2275C98.3487 15.2145 97.9365 15.3231 97.5796 15.5402C97.2225 15.7573 96.9364 16.0735 96.7553 16.4504V23.5477H94.5098V13.6095H96.6097Z" fill="#229BD8"/>
<path d="M103.661 18.5057C103.595 17.1925 103.969 15.8947 104.723 14.8183C105.048 14.3679 105.479 14.0038 105.976 13.7579C106.474 13.512 107.024 13.3916 107.579 13.4073C108.06 13.39 108.538 13.4798 108.979 13.6701C109.42 13.8605 109.813 14.1466 110.13 14.5079V9.43764H112.357V23.5477H110.342L110.229 22.5177C109.909 22.9114 109.503 23.2259 109.042 23.4364C108.58 23.6468 108.077 23.7478 107.57 23.7312C107.021 23.7415 106.478 23.6184 105.987 23.3727C105.496 23.1271 105.072 22.7659 104.751 22.3202C104.025 21.3889 103.661 20.1174 103.661 18.5057ZM105.888 18.6986C105.845 19.5229 106.048 20.3414 106.471 21.0502C106.65 21.3234 106.897 21.5452 107.188 21.6937C107.479 21.8421 107.803 21.9122 108.129 21.8968C108.546 21.9151 108.958 21.8091 109.315 21.5923C109.671 21.3754 109.955 21.0574 110.13 20.6787V16.4457C109.955 16.0724 109.673 15.7597 109.32 15.547C108.967 15.3344 108.559 15.2313 108.148 15.251C107.819 15.2376 107.491 15.3098 107.198 15.4607C106.905 15.6115 106.656 15.8358 106.476 16.1117C106.031 16.898 105.827 17.7974 105.888 18.6986Z" fill="#229BD8"/>
<path d="M119.362 22.5741C119.015 22.9655 118.584 23.273 118.102 23.4733C117.619 23.6737 117.097 23.7618 116.576 23.7312C116.124 23.7641 115.67 23.697 115.247 23.5344C114.824 23.3719 114.442 23.1179 114.128 22.7906C113.525 22.0111 113.229 21.0369 113.297 20.0532V13.6096H115.528V20.0203C115.528 21.2745 116.051 21.9016 117.097 21.9016C118.178 21.9016 118.911 21.516 119.291 20.7352V13.6096H121.518V23.5477H119.418L119.362 22.5741Z" fill="#229BD8"/>
<path d="M124.562 13.6095L124.624 14.7571C124.97 14.3268 125.411 13.9826 125.912 13.7517C126.413 13.5207 126.961 13.4093 127.513 13.426C129.586 13.426 130.639 14.6097 130.67 16.9771V23.5477H128.443V17.1088C128.486 16.604 128.34 16.1012 128.034 15.6978C127.858 15.5296 127.647 15.4008 127.418 15.3197C127.188 15.2387 126.943 15.2072 126.7 15.2274C126.283 15.2138 125.87 15.3222 125.513 15.5394C125.156 15.7565 124.87 16.073 124.689 16.4503V23.5477H122.458V13.6095H124.562Z" fill="#229BD8"/>
<path d="M131.609 18.5057C131.541 17.1849 131.925 15.8805 132.699 14.8088C133.035 14.3646 133.472 14.0072 133.974 13.7667C134.476 13.5261 135.028 13.4093 135.584 13.426C136.09 13.4046 136.594 13.5004 137.057 13.706C137.519 13.9116 137.929 14.2214 138.252 14.6113L138.356 13.6094H140.366V23.2467C140.395 23.818 140.301 24.389 140.091 24.9212C139.881 25.4533 139.56 25.9343 139.15 26.332C138.241 27.1214 137.062 27.5263 135.861 27.4608C135.123 27.4556 134.395 27.2954 133.723 26.9906C133.1 26.7433 132.554 26.3322 132.145 25.8006L133.207 24.4883C133.508 24.872 133.892 25.1818 134.331 25.3936C134.77 25.6055 135.252 25.7142 135.739 25.7113C136.379 25.7467 137.008 25.5307 137.491 25.1092C137.716 24.8762 137.89 24.5982 138.001 24.2936C138.112 23.9889 138.158 23.6642 138.135 23.3408V22.6587C137.811 23.0147 137.413 23.2954 136.969 23.4805C136.525 23.6659 136.046 23.7515 135.565 23.7312C135.015 23.7419 134.47 23.6219 133.975 23.3806C133.48 23.1395 133.049 22.7839 132.718 22.3436C131.982 21.4185 131.612 20.1393 131.609 18.5057ZM133.832 18.6985C133.786 19.5269 133.999 20.3488 134.442 21.0501C134.629 21.3242 134.882 21.5463 135.178 21.6959C135.474 21.8456 135.802 21.918 136.133 21.9062C136.543 21.925 136.949 21.8261 137.303 21.6211C137.658 21.4158 137.947 21.1134 138.135 20.7491V16.3844C137.948 16.025 137.661 15.7269 137.31 15.5259C136.958 15.325 136.557 15.2295 136.152 15.2509C135.816 15.238 135.483 15.3116 135.183 15.4648C134.884 15.618 134.629 15.8455 134.442 16.1257C133.984 16.902 133.771 17.7989 133.832 18.6985Z" fill="#229BD8"/>
<path d="M141.306 11.0274C141.301 10.8703 141.327 10.7138 141.383 10.5669C141.438 10.42 141.522 10.2855 141.63 10.1713C141.893 9.94918 142.226 9.8273 142.57 9.8273C142.914 9.8273 143.247 9.94918 143.51 10.1713C143.62 10.2843 143.706 10.4183 143.763 10.5654C143.82 10.7124 143.848 10.8696 143.843 11.0274C143.847 11.1829 143.819 11.3376 143.762 11.4822C143.704 11.6268 143.619 11.7584 143.51 11.8692C143.245 12.0888 142.913 12.209 142.57 12.209C142.227 12.209 141.894 12.0888 141.63 11.8692C141.523 11.7574 141.44 11.6253 141.384 11.4808C141.328 11.3363 141.302 11.1822 141.306 11.0274ZM143.655 23.5477H141.442V13.6095H143.669L143.655 23.5477Z" fill="#229BD8"/>
<path d="M27.7296 16.8334C27.7331 18.662 27.0793 20.4314 25.8865 21.8212L25.8241 21.8867L25.0325 22.6788L24.993 22.7083L16.6226 31.054L13.8631 33.8066L8.90256 28.8612L11.6621 26.1054L13.8631 28.3015L17.9235 24.2497L22.365 19.8281L22.9924 19.2029C23.4961 18.5632 23.781 17.7795 23.8052 16.9667C23.8295 16.154 23.5919 15.3548 23.1272 14.6864C22.8063 14.2297 22.392 13.846 21.9115 13.5605C21.0767 13.0756 20.0887 12.9225 19.1452 13.1319C18.2019 13.3412 17.3725 13.8975 16.823 14.6897C16.7315 14.2791 16.6107 13.8755 16.4616 13.482C16.117 12.5608 15.6293 11.6994 15.0161 10.9291C16.4095 9.75945 18.1743 9.12041 19.9964 9.12578C20.269 9.12578 20.5351 9.12578 20.798 9.16505C22.7002 9.36109 24.4619 10.253 25.7423 11.6683C27.0227 13.0835 27.7308 14.9216 27.7296 16.8268V16.8334Z" fill="#229BD8"/>
<path d="M15.1771 14.7714C14.8671 13.6606 14.3106 12.6334 13.5489 11.7655C12.7872 10.8976 11.8395 10.2111 10.776 9.7568C9.71238 9.30248 8.55999 9.09187 7.4038 9.14051C6.2476 9.18912 5.11714 9.49577 4.09578 10.0378C3.07442 10.5798 2.18826 11.3434 1.50265 12.2722C0.817054 13.201 0.34952 14.2713 0.134547 15.4041C-0.0804258 16.537 -0.0373513 17.7034 0.260592 18.8175C0.558535 19.9315 1.10375 20.9647 1.85599 21.8409L2.70685 22.6853L4.967 24.9402L7.72649 27.6895L9.20478 26.2167L10.5024 24.9402L12.7626 22.6853L13.6134 21.8409C13.7021 21.7393 13.7908 21.6313 13.8729 21.5135C14.9095 20.1697 15.4698 18.5215 15.4662 16.8267C15.4624 16.1318 15.3652 15.4406 15.1771 14.7714ZM10.7061 19.2258L10.1246 19.8083L7.72649 22.1877L5.35792 19.828L4.72717 19.1963C4.28236 18.6337 4.00586 17.9575 3.92945 17.2454C3.85304 16.5333 3.97985 15.8142 4.29526 15.1707C4.61068 14.5271 5.10193 13.9853 5.71258 13.6075C6.32322 13.2296 7.02847 13.031 7.74728 13.0346C8.46612 13.0381 9.16937 13.2436 9.77623 13.6275C10.3831 14.0113 10.8689 14.558 11.1779 15.2046C11.487 15.8512 11.6066 16.5715 11.5231 17.2828C11.4397 17.9942 11.1565 18.6676 10.7061 19.2258Z" fill="#229BD8"/>
<path fill-rule="evenodd" clip-rule="evenodd" d="M10.923 3.86947C10.9237 4.60489 10.7131 5.32513 10.3161 5.94511C9.91906 6.56509 9.35222 7.0589 8.68251 7.36818C8.20927 7.59111 7.69522 7.71512 7.17203 7.73256C6.64887 7.75001 6.12764 7.66054 5.64049 7.46964C4.98223 7.21464 4.40634 6.78545 3.97488 6.22837C3.54344 5.67129 3.27279 5.00744 3.19218 4.30841C3.11154 3.60937 3.22398 2.90166 3.51734 2.26161C3.81071 1.62154 4.27389 1.0734 4.85692 0.676285C5.43997 0.279171 6.12075 0.0481512 6.82587 0.00813389C7.53101 -0.0318834 8.23372 0.12062 8.85825 0.4492C9.48279 0.777781 10.0054 1.26997 10.3699 1.87271C10.7343 2.47543 10.9267 3.16584 10.9262 3.86947H10.923Z" fill="#229BD8"/>
<path fill-rule="evenodd" clip-rule="evenodd" d="M24.5626 3.86951C24.563 4.73379 24.2715 5.57308 23.7348 6.25216C23.5459 6.49846 23.3249 6.71859 23.0777 6.90673C22.3862 7.44158 21.5332 7.72725 20.6579 7.71717C19.7825 7.70709 18.9363 7.40184 18.2574 6.85121C17.5785 6.30057 17.1068 5.53704 16.9193 4.6851C16.7319 3.83315 16.8396 2.94303 17.225 2.15993C17.6104 1.37681 18.2508 0.746878 19.0416 0.372845C19.8325 -0.00119006 20.7272 -0.0972628 21.5798 0.100291C22.4326 0.297846 23.1929 0.777373 23.7371 1.46068C24.2811 2.14399 24.5768 2.99078 24.5757 3.86296L24.5626 3.86951Z" fill="#229BD8"/>
</g>
<path d="M38.1484 36.2246L35.3242 44H34.1699L37.4219 35.4688H38.166L38.1484 36.2246ZM40.5156 44L37.6855 36.2246L37.668 35.4688H38.4121L41.6758 44H40.5156ZM40.3691 40.8418V41.7676H35.5762V40.8418H40.3691ZM45.9648 40.6543H43.6855V39.7344H45.9648C46.4062 39.7344 46.7637 39.6641 47.0371 39.5234C47.3105 39.3828 47.5098 39.1875 47.6348 38.9375C47.7637 38.6875 47.8281 38.4023 47.8281 38.082C47.8281 37.7891 47.7637 37.5137 47.6348 37.2559C47.5098 36.998 47.3105 36.791 47.0371 36.6348C46.7637 36.4746 46.4062 36.3945 45.9648 36.3945H43.9492V44H42.8184V35.4688H45.9648C46.6094 35.4688 47.1543 35.5801 47.5996 35.8027C48.0449 36.0254 48.3828 36.334 48.6133 36.7285C48.8438 37.1191 48.959 37.5664 48.959 38.0703C48.959 38.6172 48.8438 39.084 48.6133 39.4707C48.3828 39.8574 48.0449 40.1523 47.5996 40.3555C47.1543 40.5547 46.6094 40.6543 45.9648 40.6543ZM51.6016 35.4688V44H50.4707V35.4688H51.6016ZM59.3887 42.7051L61.9023 35.4688H63.127L59.9688 44H59.0957L59.3887 42.7051ZM57.0391 35.4688L59.5293 42.7051L59.8398 44H58.9668L55.8145 35.4688H57.0391ZM62.8047 43.4258C62.8047 43.2422 62.8613 43.0879 62.9746 42.9629C63.0918 42.834 63.2598 42.7695 63.4785 42.7695C63.6973 42.7695 63.8633 42.834 63.9766 42.9629C64.0938 43.0879 64.1523 43.2422 64.1523 43.4258C64.1523 43.6055 64.0938 43.7578 63.9766 43.8828C63.8633 44.0078 63.6973 44.0703 63.4785 44.0703C63.2598 44.0703 63.0918 44.0078 62.9746 43.8828C62.8613 43.7578 62.8047 43.6055 62.8047 43.4258ZM69.3965 35.4219V44H68.3125V36.7754L66.127 37.5723V36.5938L69.2266 35.4219H69.3965Z" fill="#848484"/>
<defs>
<clipPath id="clip0_10_59">
<rect width="144" height="34" fill="white"/>
</clipPath>
</defs>
</svg>
